<?xml version="1.0" encoding="UTF-8" standalone="no"?>
<svg
   xmlns:dc="http://purl.org/dc/elements/1.1/"
   xmlns:cc="http://creativecommons.org/ns#"
   xmlns:rdf="http://www.w3.org/1999/02/22-rdf-syntax-ns#"
   xmlns:svg="http://www.w3.org/2000/svg"
   xmlns="http://www.w3.org/2000/svg"
   xmlns:sodipodi="http://sodipodi.sourceforge.net/DTD/sodipodi-0.dtd"
   xmlns:inkscape="http://www.inkscape.org/namespaces/inkscape"
   width="24"
   height="24"
   version="1.1"
   viewBox="0 0 24 24"
   id="svg10"
   sodipodi:docname="remove.svg"
   inkscape:version="0.92.5 (2060ec1f9f, 2020-04-08)">
  <metadata
     id="metadata16">
    <rdf:RDF>
      <cc:Work
         rdf:about="">
        <dc:format>image/svg+xml</dc:format>
        <dc:type
           rdf:resource="http://purl.org/dc/dcmitype/StillImage" />
        <dc:title>process-stop</dc:title>
      </cc:Work>
    </rdf:RDF>
  </metadata>
  <defs
     id="defs14" />
  <sodipodi:namedview
     pagecolor="#ffffff"
     bordercolor="#666666"
     borderopacity="1"
     objecttolerance="10"
     gridtolerance="10"
     guidetolerance="10"
     inkscape:pageopacity="0"
     inkscape:pageshadow="2"
     inkscape:window-width="930"
     inkscape:window-height="480"
     id="namedview12"
     showgrid="false"
     inkscape:zoom="9.8333333"
     inkscape:cx="12"
     inkscape:cy="12"
     inkscape:window-x="0"
     inkscape:window-y="27"
     inkscape:window-maximized="0"
     inkscape:current-layer="svg10" />
  <title
     id="title2">process-stop</title>
  <g
     transform="matrix(1.1071 0 0 1.1071 24.591 1.9766)"
     fill-rule="evenodd"
     id="g8">
    <circle
       id="Oval"
       cx="-11.373"
       cy="9.0536"
       r="10.839"
       fill="#c51818" />
    <path
       id="Rectangle"
       d="m-7.986 4.625c0.28776-0.28776 0.75232-0.28976 1.0421 2.05e-5 0.28777 0.28777 0.28868 0.75343 2.06e-5 1.0421l-7.8159 7.8159c-0.28776 0.28776-0.75232 0.28976-1.0421-2.1e-5 -0.28777-0.28777-0.28868-0.75343-2e-5 -1.0421z"
       fill="#fff" />
    <path
       d="m-6.9443 12.44c0.28773 0.28774 0.28973 0.75225-2.06e-5 1.042-0.28775 0.28775-0.75337 0.28866-1.042 2.1e-5l-7.8152-7.8152c-0.28774-0.28773-0.28973-0.75225 2e-5 -1.042 0.28775-0.28775 0.75337-0.28866 1.042-2.05e-5z"
       fill="#fff"
       id="path6" />
  </g>
</svg>
